<svg xmlns="http://www.w3.org/2000/svg" width="133px" height="133px" viewBox="0 0 133000 133000">
 <g>
  <rect fill="none" width="133000" height="133000"/>
  <path fill="white" fill-rule="nonzero" fill-opacity="0.301961" d="M85939 3105c534,162 836,727 675,1261 -163,535 -728,836 -1262,674 -3043,-930 -6159,-1634 -9319,-2106 -3146,-470 -6333,-707 -9533,-707 -6619,0 -13156,1017 -19390,2983 -6239,1967 -12176,4881 -17591,8673 -458,320 -1088,208 -1408,-250 -320,-457 -208,-1088 250,-1407 5592,-3917 11717,-6924 18147,-8951 6433,-2029 13173,-3079 19992,-3079 3288,0 6573,246 9826,731 3239,484 6453,1212 9613,2178z"/>
  <path fill="white" fill-rule="nonzero" fill-opacity="0.301961" d="M125215 97915c-262,495 -877,683 -1372,421 -494,-263 -683,-878 -420,-1373 2480,-4665 4368,-9592 5633,-14667 1266,-5077 1913,-10316 1913,-15600 0,-5099 -601,-10152 -1777,-15053 -1177,-4901 -2935,-9674 -5249,-14217 -254,-499 -55,-1110 444,-1364 500,-254 1111,-55 1365,445 2376,4665 4188,9590 5407,14668 1219,5077 1841,10287 1841,15521 0,5436 -669,10837 -1977,16084 -1309,5250 -3255,10335 -5808,15135z"/>
  <path fill="white" fill-rule="nonzero" fill-opacity="0.301961" d="M0 66696c0,-561 455,-1015 1015,-1015 561,0 1016,454 1016,1015 0,7006 1138,13911 3328,20457 2191,6550 5438,12750 9652,18342 337,447 248,1083 -199,1420 -446,336 -1082,248 -1419,-199 -4344,-5764 -7692,-12160 -9953,-18920 -2264,-6765 -3440,-13887 -3440,-21100z"/>
  <path fill="white" fill-rule="nonzero" fill-opacity="0.301961" d="M107105 101859c-367,420 -1007,463 -1427,95 -421,-368 -464,-1007 -96,-1427 4095,-4692 7270,-10042 9421,-15769 2148,-5725 3275,-11838 3275,-18062 0,-561 455,-1015 1016,-1015 560,0 1015,454 1015,1015 0,6454 -1173,12806 -3411,18768 -2237,5958 -5537,11520 -9793,16395z"/>
  <path fill="white" fill-rule="nonzero" fill-opacity="0.301961" d="M49876 15724c533,-170 1103,123 1273,655 171,532 -122,1102 -654,1272 -10668,3452 -19612,10129 -25889,18733 -6275,8602 -9884,19138 -9884,30312 0,4990 725,9923 2130,14648 1407,4730 3495,9259 6220,13439 304,469 171,1096 -297,1400 -469,304 -1096,171 -1400,-298 -2833,-4345 -5004,-9053 -6466,-13969 -1463,-4920 -2218,-10045 -2218,-15220 0,-11605 3754,-22555 10281,-31502 6525,-8944 15820,-15883 26904,-19470z"/>
  <path fill="white" fill-rule="nonzero" fill-opacity="0.301961" d="M84902 16334c525,190 797,771 606,1296 -190,526 -771,797 -1297,607 -2830,-1026 -5748,-1803 -8718,-2325 -2959,-519 -5969,-782 -8993,-782 -561,0 -1015,-455 -1015,-1016 0,-560 454,-1015 1015,-1015 3134,0 6260,273 9342,815 3072,539 6104,1348 9060,2420z"/>
 </g>
</svg>
